<svg xmlns="http://www.w3.org/2000/svg" version="1.1" xmlns:xlink="http://www.w3.org/1999/xlink" xmlns:svgjs="http://svgjs.dev/svgjs" width="1000" height="803" viewBox="0 0 1000 803"><g transform="matrix(1,0,0,1,0,0)"><svg viewBox="0 0 448 360" data-background-color="#282634" preserveAspectRatio="xMidYMid meet" height="803" width="1000" xmlns="http://www.w3.org/2000/svg" xmlns:xlink="http://www.w3.org/1999/xlink"><g id="tight-bounds" transform="matrix(1,0,0,1,0,0)"><svg viewBox="0 0 448 360" height="360" width="448"><g><svg></svg></g><g><svg viewBox="0 0 448 360" height="360" width="448"><g><path xmlns="http://www.w3.org/2000/svg" d="M193.855 44.683c1.378 0 2.494 1.116 2.495 2.494 0 1.378-1.116 2.494-2.495 2.495h-23.846l-17.167 17.167c-0.973 0.973-2.551 0.973-3.53 0-0.973-0.973-0.973-2.551 0-3.529l13.644-13.645h-40.378c-11.518 0-19.151 2.688-23.815 8.113-4.739 5.519-6.66 14.056-6.66 25.63 0 0.069 0 0.137-0.006 0.206l0.212 36.692 14.692-14.692c0.973-0.973 2.551-0.973 3.53 0 0.973 0.973 0.973 2.551 0 3.53l-18.178 18.178c0.206 35.832 0.193 71.358-0.013 107.19 25.486 25.2 50.617 50.312 75.811 75.791h25.38c1.378 0 2.494 1.116 2.495 2.495 0 1.378-1.116 2.494-2.495 2.494h-20.448l25.942 26.241 0.006-0.006c8.188 8.188 15.577 12.859 22.824 13.413 7.146 0.543 14.442-2.956 22.586-11.093l28.555-28.555h-20.722c-1.378 0-2.494-1.116-2.495-2.494 0-1.378 1.116-2.494 2.495-2.495h25.711l16.625-16.625c0.973-0.973 2.551-0.973 3.529 0 0.973 0.973 0.973 2.551 0 3.53l-13.101 13.102h40.377c11.518 0 19.151-2.688 23.815-8.113 4.739-5.519 6.66-14.056 6.66-25.63h0.013l-0.212-36.898-16.014 16.014c-0.973 0.973-2.551 0.973-3.53 0-0.973-0.973-0.973-2.551 0-3.53l19.5-19.5c-0.206-35.832-0.193-71.358 0.013-107.19-25.486-25.2-50.617-50.312-75.811-75.791h-26.147c-1.378 0-2.494-1.116-2.495-2.495 0-1.378 1.116-2.494 2.495-2.494h21.215l-25.824-26.123c-0.044-0.037-0.081-0.075-0.124-0.112-8.188-8.188-15.577-12.859-22.824-13.413-7.146-0.543-14.442 2.956-22.586 11.093l-28.555 28.555h18.858zM122.578 44.683h45.367l32.078-32.078c9.248-9.248 17.81-13.195 26.484-12.534 8.568 0.649 16.956 5.824 25.985 14.854 0.05 0.05 0.094 0.094 0.137 0.143l29.278 29.615h43.508c13.071 0 21.919 3.268 27.594 9.871 5.6 6.517 7.864 16.101 7.864 28.867 0 0.081-0.006 0.156-0.012 0.23l-0.225 39.742 28.43 28.112 0.006-0.006c9.03 9.03 14.206 17.411 14.854 25.985 0.661 8.674-3.293 17.236-12.534 26.484l-30.768 30.768 0.237 41.843h0.012c0 12.765-2.27 22.35-7.864 28.867-5.675 6.604-14.524 9.872-27.594 9.871h-45.366l-32.078 32.078c-9.248 9.248-17.81 13.195-26.484 12.534-8.568-0.649-16.956-5.824-25.985-14.854l0.006-0.006-29.421-29.758h-43.509c-13.071 0-21.919-3.268-27.594-9.872-5.6-6.517-7.864-16.101-7.863-28.866h0.012l0.231-39.972-28.293-27.969c-0.05-0.044-0.1-0.087-0.143-0.137-9.03-9.03-14.206-17.411-14.854-25.985-0.661-8.674 3.293-17.236 12.534-26.484l30.768-30.768-0.237-41.607c-0.006-0.075-0.012-0.156-0.012-0.23 0-12.765 2.27-22.35 7.864-28.867 5.675-6.604 14.524-9.872 27.594-9.871zM87.682 179.997l-0.274-47.724-27.276 27.276c-8.138 8.138-11.636 15.44-11.094 22.587 0.549 7.246 5.226 14.642 13.413 22.823 0.037 0.037 0.081 0.081 0.113 0.125l24.837 24.551 0.281-49.644zM92.303 241.483l-0.2 35.09h0.013c0 11.58 1.921 20.117 6.66 25.63 4.664 5.432 12.297 8.113 23.815 8.113h38.576l-33.55-33.936-35.308-34.903zM325.415 49.672h-38.575l33.549 33.936 35.308 34.902 0.2-34.884c-0.006-0.069-0.006-0.137-0.007-0.205 0-11.58-1.921-20.117-6.66-25.63-4.664-5.432-12.297-8.113-23.815-8.113zM360.599 130.352l-0.281 49.645 0.274 47.724 27.276-27.276c8.138-8.138 11.636-15.44 11.094-22.587-0.549-7.252-5.226-14.642-13.413-22.824l0.006-0.006-24.956-24.669z" fill="#ff4057" fill-rule="nonzero" stroke="none" stroke-width="1" stroke-linecap="butt" stroke-linejoin="miter" stroke-miterlimit="10" stroke-dasharray="" stroke-dashoffset="0" font-family="none" font-weight="none" font-size="none" text-anchor="none" style="mix-blend-mode: normal" data-fill-palette-color="tertiary"></path></g><g transform="matrix(1,0,0,1,112,168.30492869973943)"><svg viewBox="0 0 224 23.390142600521127" height="23.390142600521127" width="224"><g><svg viewBox="0 0 224 23.390142600521127" height="23.390142600521127" width="224"><g><svg viewBox="0 0 297.4696327147627 31.061862180906004" height="23.390142600521127" width="224"><g transform="matrix(1,0,0,1,73.46963271476272,4.292920171167184)"><svg viewBox="0 0 224 22.476021838571636" height="22.476021838571636" width="224"><g id="textblocktransform"><svg viewBox="0 0 224 22.476021838571636" height="22.476021838571636" width="224" id="textblock"><g><svg viewBox="0 0 224 22.476021838571636" height="22.476021838571636" width="224"><g transform="matrix(1,0,0,1,0,0)"><svg width="224" viewBox="5 -33.25 338.80999755859375 34" height="22.476021838571636" data-palette-color="#ff4057"><path d="M8.5-26.9L8.5 0 5 0 5-32.5 10.25-32.5 15.95-11.05 21.7-32.5 26.95-32.5 26.95 0 23.45 0 23.45-26.9 17.6-5 14.35-5 8.5-26.9ZM51.7-3L51.7 0 36.95 0 36.95-32.5 51.2-32.5 51.2-29.5 40.45-29.5 40.45-18 49.2-18 49.2-15 40.45-15 40.45-3 51.7-3ZM62.7-25L62.7 0 59.2 0 59.2-32.5 62.7-32.5 73.55-7.5 73.55-32.5 77.05-32.5 77.05 0 73.55 0 62.7-25ZM84.04 0L91.39-32.5 96.64-32.5 103.99 0 100.49 0 98.79-7.5 89.24-7.5 87.54 0 84.04 0ZM98.09-10.5L93.99-28.6 89.89-10.5 98.09-10.5ZM126.89-6.25L126.89-6.25Q126.89 0.75 118.44 0.75 109.99 0.75 109.99-6.25L109.99-6.25 109.99-10.5 113.49-10.5 113.49-6.05Q113.49-4.25 114.74-3.25 115.99-2.25 118.44-2.25 120.89-2.25 122.14-3.25 123.39-4.25 123.39-5.98 123.39-7.7 123.02-8.72 122.64-9.75 121.49-10.9L121.49-10.9 112.69-19.5Q111.14-21.05 110.57-22.53 109.99-24 109.99-26.25L109.99-26.25Q109.99-29.6 112.07-31.43 114.14-33.25 118.34-33.25L118.34-33.25Q126.39-33.25 126.39-26.25L126.39-26.25 126.39-22 122.89-22 122.89-26.45Q122.89-28.25 121.72-29.25 120.54-30.25 118.19-30.25 115.84-30.25 114.67-29.25 113.49-28.25 113.49-26.5 113.49-24.75 113.84-23.75 114.19-22.75 115.39-21.65L115.39-21.65 124.34-13.05Q125.79-11.45 126.34-9.98 126.89-8.5 126.89-6.25ZM151.79-6.25L151.79-6.25Q151.79 0.75 143.34 0.75 134.89 0.75 134.89-6.25L134.89-6.25 134.89-10.5 138.39-10.5 138.39-6.05Q138.39-4.25 139.64-3.25 140.89-2.25 143.34-2.25 145.79-2.25 147.04-3.25 148.29-4.25 148.29-5.98 148.29-7.7 147.91-8.72 147.54-9.75 146.39-10.9L146.39-10.9 137.59-19.5Q136.04-21.05 135.46-22.53 134.89-24 134.89-26.25L134.89-26.25Q134.89-29.6 136.96-31.43 139.04-33.25 143.24-33.25L143.24-33.25Q151.29-33.25 151.29-26.25L151.29-26.25 151.29-22 147.79-22 147.79-26.45Q147.79-28.25 146.61-29.25 145.44-30.25 143.09-30.25 140.74-30.25 139.56-29.25 138.39-28.25 138.39-26.5 138.39-24.75 138.74-23.75 139.09-22.75 140.29-21.65L140.29-21.65 149.24-13.05Q150.69-11.45 151.24-9.98 151.79-8.5 151.79-6.25ZM165.29-3L167.79-3 167.79 0 159.29 0 159.29-3 161.79-3 161.79-29.5 159.29-29.5 159.29-32.5 167.79-32.5 167.79-29.5 165.29-29.5 165.29-3ZM191.03-3L191.03 0 176.28 0 176.28-32.5 190.53-32.5 190.53-29.5 179.78-29.5 179.78-18 188.53-18 188.53-15 179.78-15 179.78-3 191.03-3ZM224.78-3L224.78 0 210.03 0 210.03-32.5 224.28-32.5 224.28-29.5 213.53-29.5 213.53-18 222.28-18 222.28-15 213.53-15 213.53-3 224.78-3ZM235.78-11.5L235.78 0 232.28 0 232.28-32.5 239.83-32.5Q243.73-32.5 245.75-30.65 247.78-28.8 247.78-25.5L247.78-25.5 247.78-18.5Q247.78-13.4 243.38-12L243.38-12 249.53 0 245.68 0 239.83-11.5 235.78-11.5ZM244.28-18.5L244.28-18.5 244.28-25.5Q244.28-27.4 243.13-28.45 241.98-29.5 239.83-29.5L239.83-29.5 235.78-29.5 235.78-14.5 239.83-14.5Q244.28-14.5 244.28-18.5ZM260.02-26.9L260.02 0 256.52 0 256.52-32.5 261.77-32.5 267.47-11.05 273.22-32.5 278.47-32.5 278.47 0 274.97 0 274.97-26.9 269.12-5 265.87-5 260.02-26.9ZM292.97-3L295.47-3 295.47 0 286.97 0 286.97-3 289.47-3 289.47-29.5 286.97-29.5 286.97-32.5 295.47-32.5 295.47-29.5 292.97-29.5 292.97-3ZM300.97 0L308.32-32.5 313.57-32.5 320.92 0 317.42 0 315.72-7.5 306.17-7.5 304.47 0 300.97 0ZM315.02-10.5L310.92-28.6 306.82-10.5 315.02-10.5ZM343.81-6.25L343.81-6.25Q343.81 0.75 335.37 0.75 326.92 0.75 326.92-6.25L326.92-6.25 326.92-10.5 330.42-10.5 330.42-6.05Q330.42-4.25 331.67-3.25 332.92-2.25 335.37-2.25 337.81-2.25 339.06-3.25 340.31-4.25 340.31-5.98 340.31-7.7 339.94-8.72 339.56-9.75 338.42-10.9L338.42-10.9 329.62-19.5Q328.06-21.05 327.49-22.53 326.92-24 326.92-26.25L326.92-26.25Q326.92-29.6 328.99-31.43 331.06-33.25 335.27-33.25L335.27-33.25Q343.31-33.25 343.31-26.25L343.31-26.25 343.31-22 339.81-22 339.81-26.45Q339.81-28.25 338.64-29.25 337.47-30.25 335.12-30.25 332.77-30.25 331.59-29.25 330.42-28.25 330.42-26.5 330.42-24.75 330.77-23.75 331.12-22.75 332.31-21.65L332.31-21.65 341.27-13.05Q342.72-11.45 343.27-9.98 343.81-8.5 343.81-6.25Z" opacity="1" transform="matrix(1,0,0,1,0,0)" fill="#ff4057" class="wordmark-text-0" data-fill-palette-color="primary" id="text-0"></path></svg></g></svg></g></svg></g></svg></g><g><svg viewBox="0 0 68.16358338320009 31.061862180906004" height="31.061862180906004" width="68.16358338320009"><g><svg xmlns="http://www.w3.org/2000/svg" xmlns:xlink="http://www.w3.org/1999/xlink" version="1.1" x="0" y="0" viewBox="5 29.493873596191406 90 41.01262664794922" enable-background="new 0 0 100 100" xml:space="preserve" height="31.061862180906004" width="68.16358338320009" class="icon-icon-0" data-fill-palette-color="accent" id="icon-0"><g fill="#dcdcdc" data-fill-palette-color="accent"><path d="M23.943 30.807L5 50.001l18.942 19.192c1.728 1.751 4.53 1.751 6.258 0.002 1.729-1.75 1.73-4.587 0.002-6.338L18.193 50.695l-3.624 2.289 15.634-15.841c0.864-0.875 1.295-2.021 1.295-3.168 0-1.147-0.433-2.295-1.297-3.17C28.473 29.056 25.671 29.057 23.943 30.807z" fill="#dcdcdc" data-fill-palette-color="accent"></path><path d="M76.057 30.808L95 50.001 76.058 69.193c-1.728 1.751-4.53 1.751-6.258 0.002-1.729-1.75-1.73-4.587-0.002-6.338l12.009-12.161 3.624 2.289L69.796 37.144c-0.864-0.875-1.295-2.021-1.295-3.168 0-1.147 0.433-2.295 1.297-3.17C71.527 29.056 74.329 29.057 76.057 30.808z" fill="#dcdcdc" data-fill-palette-color="accent"></path><path d="M60.899 32.352c-0.419-1.068-1.241-1.978-2.366-2.476-2.249-0.997-4.857 0.028-5.825 2.288l-13.82 32.062c-0.484 1.13-0.467 2.355-0.048 3.422 0.419 1.068 1.241 1.978 2.366 2.476 2.249 0.997 4.857-0.028 5.825-2.288l13.82-32.062C61.335 34.644 61.318 33.419 60.899 32.352z" fill="#dcdcdc" data-fill-palette-color="accent"></path></g></svg></g></svg></g></svg></g></svg></g></svg></g></svg></g><defs></defs></svg><rect width="448" height="360" fill="none" stroke="none" visibility="hidden"></rect></g></svg></g></svg>